    <svg display="none" 
         xmlns="http://www.w3.org/2000/svg">
      
      <symbol id="heart" width="28" height="26" viewBox="0 0 28 26">
        <g>
          <path d="M14 26l-1.96-1.978C4.76 17.522 0 13.142 0 7.772 0 3.392 3.36 0 7.7 0c2.38 0 4.76 1.13 6.3 2.967C15.54 1.131 17.92 0 20.3 0 24.639 0 28 3.39 28 7.772c0 5.37-4.76 9.75-12.04 16.25L14 26z"/>
        </g>
      </symbol>
      
      <symbol id="car" width="32" height="27" viewBox="0 0 32 27">
        <g>
          <path d="M11.656 9.002v.03c0 1.863 1.427 3.374 3.188 3.374 1.76 0 3.188-1.51 3.188-3.375v-.029h12.36c.888 0 1.609.756 1.609 1.688 0 .932-.72 1.687-1.61 1.687h-.995L23.424 27H8.417L2.443 12.376l-.836.001C.721 12.377 0 11.622 0 10.69s.72-1.687 1.607-1.687h10.05zm-.686 5.592h-.44a1 1 0 0 0-1 .998v7.035a1 1 0 0 0 1 .998h.44a.998.998 0 0 0 .999-.998v-7.035a.998.998 0 0 0-.999-.998zm5.22 0h-.473a1 1 0 0 0-1 .998v7.035a1 1 0 0 0 1 .998h.472c.551 0 .999-.447.999-.998v-7.035a.999.999 0 0 0-.999-.998zm5.155 0h-.47a.998.998 0 0 0-1 .998v7.035c0 .551.447.998 1 .998h.47a1 1 0 0 0 1-.998v-7.035a.999.999 0 0 0-1-.998zM19.529.188c.66.423.884 1.36.504 2.094l-3.675 7.08c-.381.733-1.224.985-1.883.561-.66-.423-.885-1.36-.505-2.094L17.645.75c.381-.733 1.223-.984 1.884-.561z"/>
        </g>
      </symbol>
      
      <symbol id="cross" width="15" height="15" viewBox="0 0 15 15">
        <g>
          <path d="M15 .87L14.13 0 7.5 6.63.87 0 0 .87 6.63 7.5 0 14.13l.87.87L7.5 8.37 14.13 15l.87-.87L8.37 7.5z"/>
        </g>
      </symbol>
      
      <symbol id="arrow" width="5" height="8" viewBox="0 0 5 8">
        <g>
          <path d="M5.005 4L.99 8.008V-.01z"/>
        </g>
      </symbol>
      
      <symbol id="big-arrow" width="12" height="20" viewBox="0 0 12 20">
        <g>
          <path d="M2.055.006l9.947 9.938-1.882 1.88-.024-.024-8.202 8.206-1.889-1.888 8.202-8.205L.174 1.886l1.88-1.88z"/>
        </g>
      </symbol>
      
      <symbol id="magnifier" width="56" height="56" viewBox="0 0 26.1 26.1">
        <g>
          <path d="m25.806,22.9l-5.4-5.4c-0.2-0.2-0.2-0.4-0.1-0.6 1.1-1.7 1.7-3.7 1.7-5.9 0-6.1-4.9-11-11-11s-11,4.9-11,11 4.9,11 11,11c2.2,0 4.2-0.6 5.9-1.7 0.2-0.1 0.5-0.1 0.6,0.1l5.4,5.4c0.4,0.4 1,0.4 1.4,0l1.4-1.4c0.5-0.5 0.5-1.1 0.1-1.5zm-14.7-4.9c-3.9,0-7-3.1-7-7s3.1-7 7-7 7,3.1 7,7-3.1,7-7,7z"/>
        </g>
      </symbol>
      
      <symbol id="instagram" width="18" height="17.5" viewBox="0 0 89.758 89.758">
        <g>
          <path style="fill:#8bc34a;" d="M58.255,23.88H31.503c-4.27,0-7.744,3.474-7.744,7.744v26.752c0,4.27,3.474,7.745,7.744,7.745
               h26.752c4.27,0,7.745-3.474,7.745-7.745V31.624C66,27.354,62.526,23.88,58.255,23.88z M44.879,58.906
               c-7.667,0-13.905-6.238-13.905-13.906c0-7.667,6.238-13.905,13.905-13.905c7.668,0,13.906,6.238,13.906,13.905
               C58.785,52.667,52.546,58.906,44.879,58.906z M59.232,33.97c-1.815,0-3.291-1.476-3.291-3.29c0-1.814,1.476-3.29,3.291-3.29
               c1.814,0,3.29,1.476,3.29,3.29C62.522,32.494,61.046,33.97,59.232,33.97z"/>
          <path style="fill:#8bc34a;" d="M44.879,36.971c-4.426,0-8.03,3.602-8.03,8.028c0,4.428,3.604,8.031,8.03,8.031
                c4.428,0,8.029-3.603,8.029-8.031C52.908,40.574,49.306,36.971,44.879,36.971z"/>
          <path style="fill:#8bc34a;" d="M44.879,0C20.094,0,0,20.094,0,44.879c0,24.785,20.094,44.879,44.879,44.879
                c24.785,0,44.879-20.094,44.879-44.879C89.758,20.094,69.664,0,44.879,0z M71.875,58.376c0,7.511-6.109,13.62-13.62,13.62H31.503
                c-7.51,0-13.62-6.109-13.62-13.62V31.624c0-7.51,6.11-13.62,13.62-13.62h26.752c7.511,0,13.62,6.11,13.62,13.62V58.376z"/>
        </g>
      </symbol>
      
      <symbol id="printerest" width="18" height="17.5" viewBox="0 0 512.883 512.883">
        <g>
		  <path style="fill:#8bc34a;" d="M256.441,0c-141.241,0-256,114.759-256,256c0,105.048,62.676,195.09,153.6,234.814
	c-0.883-17.655,0-39.724,4.414-59.145c5.297-21.186,32.662-139.476,32.662-139.476s-7.945-16.772-7.945-40.607
	c0-37.959,22.069-66.207,49.434-66.207c22.952,0,34.428,17.655,34.428,38.841c0,22.952-15.007,58.262-22.952,90.924
	c-6.179,27.366,13.241,49.434,40.607,49.434c48.552,0,81.214-62.676,81.214-135.945c0-56.497-37.959-97.986-106.814-97.986
	c-77.683,0-126.234,58.262-126.234,122.703c0,22.069,6.179,37.959,16.772,50.317c4.414,5.297,5.297,7.945,3.531,14.124
	c-0.883,4.414-4.414,15.89-5.297,20.303c-1.766,6.179-7.062,8.828-13.241,6.179c-36.193-15.007-52.083-53.848-52.083-97.986
	c0-72.386,60.91-159.779,182.731-159.779c97.986,0,162.428,70.621,162.428,146.538c0,100.634-55.614,175.669-137.71,175.669
	c-27.366,0-53.848-15.007-62.676-31.779c0,0-15.007,59.145-17.655,70.621c-5.297,19.421-15.89,39.724-25.6,54.731
	c22.952,7.062,47.669,10.593,72.386,10.593c141.241,0,256-114.759,256-256S397.683,0,256.441,0"/>
	   </g>
      </symbol>
      
      <symbol id="facebook" width="18" height="17.5" viewBox="0 0 112.196 112.196">
        <g>
          <circle style="fill:#8bc34a;" cx="56.098" cy="56.098" r="56.098"/>
          <path style="fill:#FFFFFF;" d="M70.201,58.294h-10.01v36.672H45.025V58.294h-7.213V45.406h7.213v-8.34
                c0-5.964,2.833-15.303,15.301-15.303L71.56,21.81v12.51h-8.151c-1.337,0-3.217,0.668-3.217,3.513v7.585h11.334L70.201,58.294z"/>
        </g>
      </symbol>
      
      <symbol id="twitter" width="18" height="17.5" viewBox="0 0 112.196 112.196">
        <g>
          <circle style="fill:#8bc34a;" cx="56.099" cy="56.098" r="56.098"/>
          <g>
            <path style="fill:#F1F2F2;" d="M90.461,40.316c-2.404,1.066-4.99,1.787-7.702,2.109c2.769-1.659,4.894-4.284,5.897-7.417
                    c-2.591,1.537-5.462,2.652-8.515,3.253c-2.446-2.605-5.931-4.233-9.79-4.233c-7.404,0-13.409,6.005-13.409,13.409
                    c0,1.051,0.119,2.074,0.349,3.056c-11.144-0.559-21.025-5.897-27.639-14.012c-1.154,1.98-1.816,4.285-1.816,6.742
                    c0,4.651,2.369,8.757,5.965,11.161c-2.197-0.069-4.266-0.672-6.073-1.679c-0.001,0.057-0.001,0.114-0.001,0.17
                    c0,6.497,4.624,11.916,10.757,13.147c-1.124,0.308-2.311,0.471-3.532,0.471c-0.866,0-1.705-0.083-2.523-0.239
                    c1.706,5.326,6.657,9.203,12.526,9.312c-4.59,3.597-10.371,5.74-16.655,5.74c-1.08,0-2.15-0.063-3.197-0.188
                    c5.931,3.806,12.981,6.025,20.553,6.025c24.664,0,38.152-20.432,38.152-38.153c0-0.581-0.013-1.16-0.039-1.734
                    C86.391,45.366,88.664,43.005,90.461,40.316L90.461,40.316z"/>
          </g>
        </g>
      </symbol>

    </svg>